<svg width="12" height="16" viewBox="0 0 12 16" fill="none" xmlns="http://www.w3.org/2000/svg">
<path d="M6.75005 15.2V2.73128L10.7198 6.96566C11.0127 7.27805 11.4875 7.27805 11.7803 6.96566C12.0732 6.65326 12.0732 6.14666 11.7803 5.83426L6.5303 0.234299C6.23742 -0.0780995 5.76248 -0.0780995 5.46979 0.234299L0.219752 5.83426C0.0733132 5.99046 0 6.19506 0 6.40006C0 6.60466 0.0733132 6.80946 0.219752 6.96566C0.512629 7.27805 0.98757 7.27805 1.28026 6.96566L5.25004 2.73128V15.2C5.25004 15.6418 5.58586 16 6.00005 16C6.41424 16 6.75005 15.6418 6.75005 15.2Z" fill="white"/>
</svg>
